<svg width="50" height="50" viewBox="0 0 50 50" fill="none" xmlns="http://www.w3.org/2000/svg">
<path d="M50 8.33331H0V41.667H50V8.33331Z" fill="#F0F0F0"/>
<path d="M28.125 8.33301H21.875V21.8746H0V28.1246H21.875V41.6662H28.125V28.1246H50V21.8746H28.125V8.33301Z" fill="#D80027"/>
<path d="M38.4556 30.7967L50 37.2104V30.7967H38.4556Z" fill="#0052B4"/>
<path d="M30.4348 30.7967L50 41.6662V38.5926L35.9675 30.7967H30.4348Z" fill="#0052B4"/>
<path d="M44.7885 41.6662L30.4348 33.6912V41.6662H44.7885Z" fill="#0052B4"/>
<path d="M30.4348 30.7967L50 41.6662V38.5926L35.9675 30.7967H30.4348Z" fill="#F0F0F0"/>
<path d="M30.4348 30.7967L50 41.6662V38.5926L35.9675 30.7967H30.4348Z" fill="#D80027"/>
<path d="M8.82236 30.7965L0 35.6979V30.7965H8.82236Z" fill="#0052B4"/>
<path d="M19.5652 32.1787V41.6661H2.48936L19.5652 32.1787Z" fill="#0052B4"/>
<path d="M14.0325 30.7967L0 38.5926V41.6662L19.5652 30.7967H14.0325Z" fill="#D80027"/>
<path d="M11.5444 19.2026L0 12.7889V19.2026H11.5444Z" fill="#0052B4"/>
<path d="M19.5652 19.2025L0 8.33301V11.4066L14.0325 19.2025H19.5652Z" fill="#0052B4"/>
<path d="M5.21152 8.33301L19.5652 16.308V8.33301H5.21152Z" fill="#0052B4"/>
<path d="M19.5652 19.2025L0 8.33301V11.4066L14.0325 19.2025H19.5652Z" fill="#F0F0F0"/>
<path d="M19.5652 19.2025L0 8.33301V11.4066L14.0325 19.2025H19.5652Z" fill="#D80027"/>
<path d="M41.1776 19.2028L50 14.3014V19.2028H41.1776Z" fill="#0052B4"/>
<path d="M30.4348 17.8205V8.33313H47.5106L30.4348 17.8205Z" fill="#0052B4"/>
<path d="M35.9675 19.2025L50 11.4066V8.33301L30.4348 19.2025H35.9675Z" fill="#D80027"/>
</svg>
