<svg width="50" height="50" viewBox="0 0 50 50" fill="none" xmlns="http://www.w3.org/2000/svg">
<path d="M50 8.33311H0V41.6668H50V8.33311Z" fill="#F0F0F0"/>
<path d="M50 12.4994H0V16.6657H50V12.4994Z" fill="#D80027"/>
<path d="M50 20.8331H0V24.9994H50V20.8331Z" fill="#D80027"/>
<path d="M50 29.1657H0V33.332H50V29.1657Z" fill="#D80027"/>
<path d="M50 37.4994H0V41.6657H50V37.4994Z" fill="#D80027"/>
<path d="M25 8.33311H0V26.282H25V8.33311Z" fill="#2E52B2"/>
<path d="M9.74825 15.6859L9.34562 16.9246H8.04327L9.09708 17.6897L8.69445 18.9283L9.74825 18.1632L10.8014 18.9283L10.3988 17.6897L11.4526 16.9246H10.1502L9.74825 15.6859Z" fill="#F0F0F0"/>
<path d="M10.1502 21.3945L9.74825 20.156L9.34562 21.3945H8.04327L9.09708 22.1598L8.69445 23.3983L9.74825 22.6331L10.8014 23.3983L10.3988 22.1598L11.4526 21.3945H10.1502Z" fill="#F0F0F0"/>
<path d="M4.64622 21.3945L4.24417 20.156L3.84153 21.3945H2.53918L3.59299 22.1598L3.19036 23.3983L4.24417 22.6331L5.29739 23.3983L4.89485 22.1598L5.94846 21.3945H4.64622Z" fill="#F0F0F0"/>
<path d="M4.24417 15.6859L3.84153 16.9246H2.53918L3.59299 17.6897L3.19036 18.9283L4.24417 18.1632L5.29739 18.9283L4.89485 17.6897L5.94846 16.9246H4.64622L4.24417 15.6859Z" fill="#F0F0F0"/>
<path d="M9.74825 11.2158L9.34562 12.4546H8.04327L9.09708 13.2198L8.69445 14.4584L9.74825 13.6932L10.8014 14.4584L10.3988 13.2198L11.4526 12.4546H10.1502L9.74825 11.2158Z" fill="#F0F0F0"/>
<path d="M4.24417 11.2158L3.84153 12.4546H2.53918L3.59299 13.2198L3.19036 14.4584L4.24417 13.6932L5.29739 14.4584L4.89485 13.2198L5.94846 12.4546H4.64622L4.24417 11.2158Z" fill="#F0F0F0"/>
<path d="M15.2523 15.6859L14.8497 16.9246H13.5474L14.6011 17.6897L14.1987 18.9283L15.2523 18.1632L16.3056 18.9283L15.903 17.6897L16.9568 16.9246H15.6544L15.2523 15.6859Z" fill="#F0F0F0"/>
<path d="M15.6544 21.3945L15.2523 20.156L14.8497 21.3945H13.5474L14.6011 22.1598L14.1987 23.3983L15.2523 22.6331L16.3056 23.3983L15.903 22.1598L16.9568 21.3945H15.6544Z" fill="#F0F0F0"/>
<path d="M21.1585 21.3945L20.7565 20.156L20.3538 21.3945H19.0516L20.1052 22.1598L19.7026 23.3983L20.7565 22.6331L21.8097 23.3983L21.407 22.1598L22.4609 21.3945H21.1585Z" fill="#F0F0F0"/>
<path d="M20.7565 15.6859L20.3538 16.9246H19.0516L20.1052 17.6897L19.7026 18.9283L20.7565 18.1632L21.8097 18.9283L21.407 17.6897L22.4609 16.9246H21.1585L20.7565 15.6859Z" fill="#F0F0F0"/>
<path d="M15.2523 11.2158L14.8497 12.4546H13.5474L14.6011 13.2198L14.1987 14.4584L15.2523 13.6932L16.3056 14.4584L15.903 13.2198L16.9568 12.4546H15.6544L15.2523 11.2158Z" fill="#F0F0F0"/>
<path d="M20.7565 11.2158L20.3538 12.4546H19.0516L20.1052 13.2198L19.7026 14.4584L20.7565 13.6932L21.8097 14.4584L21.407 13.2198L22.4609 12.4546H21.1585L20.7565 11.2158Z" fill="#F0F0F0"/>
</svg>
