<svg width="100" height="100" viewBox="0 0 100 100" fill="none" xmlns="http://www.w3.org/2000/svg">
<path d="M50 0C22.3843 0 0 22.3843 0 50C0 77.6157 22.3843 100 50 100C77.6124 100 100 77.6157 100 50C100 22.3843 77.6157 0 50 0ZM64.175 72.2531C65.3969 73.475 65.3969 75.4531 64.175 76.6717C62.9531 77.8905 60.975 77.8905 59.7562 76.6717L35.8281 52.7438C35.0781 51.9938 34.8469 50.9688 35.0188 49.9969C34.8469 49.0281 35.0812 48 35.8281 47.25L59.7562 23.3219C60.9783 22.1 62.9562 22.1 64.175 23.3219C65.3969 24.5405 65.3969 26.5219 64.175 27.7405L41.9188 50L64.175 72.2531Z" fill="#444444" fill-opacity="0.5"/>
</svg>
