<svg width="100" height="100" viewBox="0 0 100 100" fill="none" xmlns="http://www.w3.org/2000/svg">
<path d="M50 0C22.3843 0 0 22.3876 0 50C0 77.6157 22.3843 100 50 100C77.6157 100 100 77.6157 100 50C100 22.3876 77.6157 0 50 0ZM64.175 52.7469L40.2469 76.675C39.025 77.8969 37.0469 77.8969 35.8281 76.675C34.6062 75.4531 34.6062 73.475 35.8281 72.2562L58.0812 50L35.8281 27.7469C34.6062 26.525 34.6062 24.5469 35.8281 23.3281C37.05 22.1062 39.0281 22.1062 40.2469 23.3281L64.175 47.2562C64.925 48.0062 65.1562 49.0312 64.9876 50.0033C65.1562 50.9719 64.9219 51.9969 64.175 52.7469Z" fill="#444444" fill-opacity="0.5"/>
</svg>
