<svg width="112" height="148" viewBox="0 0 112 148" fill="none" xmlns="http://www.w3.org/2000/svg">
<path fill-rule="evenodd" clip-rule="evenodd" d="M15.3853 48.3467V51.5834C15.3853 55.7192 20.0528 59.9366 24.1767 59.8795L29.4121 53.2509L23.5674 45.0694H18.6778C16.8669 45.0691 15.3853 46.5402 15.3853 48.3467Z" fill="#FFBC85"/>
<path fill-rule="evenodd" clip-rule="evenodd" d="M88.4346 45.0691L82.269 51.2971L87.8255 59.8792C91.9497 59.9363 96.617 55.7189 96.617 51.5831V48.3464C96.617 46.5402 95.1353 45.0688 93.3241 45.0688H88.4346V45.0691Z" fill="#FFBC85"/>
<path fill-rule="evenodd" clip-rule="evenodd" d="M27.5437 145.471H51.6136H84.4505H106.726C108.866 145.471 109.541 144.891 109.261 142.701L105.639 114.895C103.367 97.4116 88.5003 94.5919 76.416 91.3226C76.062 91.2245 75.7328 91.102 75.4283 90.9547H36.5741C36.2611 91.1017 35.9319 91.2243 35.5864 91.3226C23.5021 94.5919 8.63545 97.4119 6.35499 114.895L2.74134 142.701C2.45309 144.891 3.13653 145.471 5.27665 145.471H27.5437Z" fill="#22A6FE"/>
<path fill-rule="evenodd" clip-rule="evenodd" d="M23.5679 54.9181C23.5679 56.5283 23.7736 58.1958 24.177 59.8795C26.2102 68.437 33.0919 77.5912 41.8424 82.953C43.7687 84.1381 45.7937 85.1353 47.8763 85.9037C50.815 86.9827 53.4081 87.5219 56.0012 87.5219C58.5943 87.5219 61.1872 86.9824 64.1261 85.9037C66.2087 85.1355 68.2256 84.1381 70.16 82.953C78.9105 77.5912 85.7923 68.437 87.8254 59.8795C88.2206 58.1958 88.4345 56.5283 88.4345 54.9181V45.069C38.9282 19.1428 73.6007 18.3582 23.5676 45.069V54.9181H23.5679Z" fill="#FFE5C1"/>
<path fill-rule="evenodd" clip-rule="evenodd" d="M36.574 90.9547L51.202 99.5694C54.9145 101.727 57.0877 101.727 60.8004 99.5694L75.4285 90.9547C71.9712 89.2956 70.9585 84.5713 70.16 82.9531C68.2256 84.1382 66.2087 85.1353 64.1261 85.9038C61.1875 86.9828 58.5944 87.522 56.0012 87.522C53.4081 87.522 50.8153 86.9825 47.8763 85.9038C45.7938 85.1356 43.7687 84.1382 41.8425 82.9531C41.044 84.5713 40.0231 89.2956 36.574 90.9547Z" fill="#FED1A3"/>
<path fill-rule="evenodd" clip-rule="evenodd" d="M56.0015 8.76259C39.7848 9.03219 23.5679 21.1535 23.5679 45.069C36.6977 44.1619 34.7386 34.2067 43.8018 36.5279C50.8071 38.3179 53.4002 39.217 56.0015 39.217C58.6027 39.217 61.1959 38.3179 68.2011 36.5279C77.2643 34.2067 75.3052 44.1619 88.435 45.069C88.435 38.1545 87.0769 32.2286 84.7636 27.2918C83.9898 26.0332 79.2484 15.7674 72.3582 13.4134C67.3695 10.4137 61.6895 8.86063 56.0015 8.76259Z" fill="#6D80AA"/>
<path fill-rule="evenodd" clip-rule="evenodd" d="M72.3577 13.4134C71.4522 15.612 70.8513 17.7207 70.8513 19.3063C70.8513 27.4144 79.2479 30.079 84.7631 27.2918C87.4466 25.9268 89.4469 23.2625 89.4469 19.3063C89.4469 15.097 85.183 7.16891 82.3429 3.64617C81.5444 2.65714 80.8528 2.16666 80.1615 2.16666H80.1449C79.4533 2.16666 78.7536 2.65714 77.9635 3.64617C76.1855 5.84482 73.8559 9.75972 72.3577 13.4134Z" fill="#22A6FE"/>
<path fill-rule="evenodd" clip-rule="evenodd" d="M62.3809 92.5159C63.8297 91.7884 63.2948 91.4369 64.9987 92.5078C65.9126 93.0882 67.2789 93.8483 68.95 94.7635L75.4285 90.9547C71.9712 89.2956 70.9585 84.5713 70.16 82.9531C68.2256 84.1382 66.2087 85.1353 64.1261 85.9038C61.1875 86.9828 58.5944 87.522 56.0012 87.522C53.4081 87.522 50.8153 86.9825 47.8763 85.9038C45.7938 85.1356 43.7687 84.1382 41.8425 82.9531C41.3979 83.8522 40.8876 85.6912 39.9409 87.4484C46.057 91.5597 53.6385 96.9132 62.3809 92.5159Z" fill="#FFBC85"/>
<path fill-rule="evenodd" clip-rule="evenodd" d="M50.7246 9.26954C57.5817 10.0051 66.3156 13.5034 70.8678 18.8816C70.9585 17.3531 71.5347 15.4243 72.3579 13.4137C67.3696 10.414 61.6896 8.86095 56.0012 8.76291C54.2395 8.79549 52.4695 8.9587 50.7246 9.26954Z" fill="#49679B"/>
<path fill-rule="evenodd" clip-rule="evenodd" d="M76.5232 27.7169C78.2353 31.395 79.4209 35.6205 79.9064 40.3938C79.9724 41.0639 80.0299 41.7424 80.0627 42.437C81.989 43.7366 84.549 44.7992 88.4346 45.0688C88.4346 38.1542 87.0765 32.2284 84.7632 27.2915C82.2607 28.5505 79.1573 28.6975 76.5232 27.7169Z" fill="#49679B"/>
<path fill-rule="evenodd" clip-rule="evenodd" d="M80.1533 45.3876V55.2448C80.1533 56.8469 79.9391 58.5141 79.5358 60.198C77.5108 68.7556 70.629 77.9098 61.8785 83.2716C59.9441 84.4567 57.919 85.4538 55.8362 86.2223C54.725 86.6309 53.6548 86.9659 52.6174 87.2194C53.7617 87.4238 54.881 87.5219 56.0006 87.5219C58.5938 87.5219 61.1866 86.9824 64.1255 85.9037C66.2081 85.1355 68.225 84.1381 70.1594 82.953C78.9099 77.5912 85.7917 68.437 87.8249 59.8794C88.2201 58.1958 88.4339 56.5282 88.4339 54.9181V45.069C84.5486 44.7994 81.9883 43.7368 80.0621 42.4373C80.1205 43.4015 80.1533 44.3905 80.1533 45.3876Z" fill="#FED1A3"/>
<path fill-rule="evenodd" clip-rule="evenodd" d="M99.169 118.712L102.651 145.471H106.726C108.866 145.471 109.541 144.891 109.261 142.701L105.639 114.895C103.367 97.4116 88.5004 94.5919 76.4161 91.3226C76.0622 91.2245 75.7329 91.102 75.4284 90.9547L68.95 94.7634C78.8035 99.1037 96.7325 99.9699 99.169 118.712Z" fill="#0182FC"/>
<path fill-rule="evenodd" clip-rule="evenodd" d="M78.6471 2.89416C81.38 6.82549 84.681 13.4053 84.681 17.1077C84.681 19.7069 83.8249 21.742 82.4749 23.2215C81.7586 23.9981 80.9191 24.6192 79.989 25.0932C78.0793 26.0577 75.8154 26.3683 73.6753 26.0249C74.5066 26.7604 75.478 27.3325 76.5235 27.7169C79.1576 28.6976 82.261 28.5505 84.7635 27.2919C87.447 25.9268 89.4473 23.2625 89.4473 19.3063C89.4473 15.097 85.1834 7.16892 82.3433 3.64617C81.5447 2.65714 80.8532 2.16666 80.1619 2.16666H80.1453C79.6595 2.16666 79.1739 2.41204 78.6471 2.89416Z" fill="#0182FC"/>
<path d="M74.3159 89.0949C75.351 88.4856 75.5326 89.9276 76.1466 90.9547C76.7609 91.9818 77.5757 92.205 76.5406 92.8145" fill="black"/>
<path d="M111.423 142.423L107.801 114.618C105.482 96.7765 90.9351 92.929 79.2465 89.8377C78.4861 89.6364 77.7323 89.4371 76.9899 89.2365C74.7181 88.6211 73.5878 85.7956 72.8398 83.7976C80.7738 78.4249 87.1218 70.1193 89.5481 61.8786C91.6452 61.4758 93.7763 60.3379 95.4968 58.6543C97.594 56.6021 98.7964 54.0251 98.7964 51.5837V48.347C98.7964 45.3473 96.3416 42.9067 93.3242 42.9067H90.5672C90.3501 37.5423 89.3191 32.5813 87.4926 28.1099C89.9404 26.2348 91.6263 23.2841 91.6263 19.3066C91.6263 14.2421 86.7655 5.67065 84.0434 2.2941C83.2486 1.30881 81.98 0 80.1502 0C80.1487 0 80.147 0 80.1453 0C78.3164 0.00230678 77.0526 1.31054 76.2611 2.29583C74.868 4.01986 72.9165 7.10114 71.341 10.3791C66.6412 7.99387 61.4003 6.69284 56.0391 6.60028C56.0138 6.59999 55.9891 6.59999 55.9644 6.60028C50.6936 6.68852 45.4475 7.96993 40.7924 10.3067C39.7187 10.8459 39.2881 12.1467 39.8315 13.2127C40.3746 14.2787 41.6854 14.7049 42.7599 14.1662C46.8193 12.1288 51.3968 11.0083 55.9999 10.9258C60.8034 11.0143 65.4911 12.2086 69.6693 14.3917C69.0559 16.1772 68.6715 17.8799 68.6715 19.3066C68.6715 22.7472 69.9346 25.6586 72.3237 27.727C74.4069 29.5303 77.1857 30.5233 80.1487 30.5233C81.3061 30.5233 82.4658 30.3619 83.5802 30.0473C85.0869 33.8445 85.9638 38.0533 86.1937 42.6103C82.0442 41.8182 80.1057 39.8543 78.2216 37.9457C75.9255 35.6196 73.3239 32.9821 67.6567 34.4336C65.997 34.8578 64.5978 35.2283 63.3637 35.5553C59.5946 36.5533 57.7032 37.0544 56.0007 37.0544C54.2982 37.0544 52.4063 36.5533 48.6375 35.5553C47.4031 35.2283 46.0039 34.8578 44.3453 34.4339C38.679 32.9832 36.0757 35.6193 33.7793 37.9457C31.8957 39.8543 29.9567 41.8179 25.8078 42.6103C26.2887 33.0934 29.5903 25.1036 35.4277 19.3917C36.2846 18.5532 36.2945 17.1838 35.4495 16.3335C34.6039 15.4823 33.224 15.4736 32.3676 16.3118C25.6279 22.9061 21.8699 32.0669 21.4311 42.9067H18.6773C15.6599 42.9067 13.2051 45.347 13.2051 48.347V51.5837C13.2051 54.0251 14.4078 56.6024 16.5046 58.6543C18.2251 60.3379 20.356 61.4758 22.4531 61.8786C24.8788 70.1204 31.2265 78.4263 39.1614 83.7985C38.4131 85.7965 37.2831 88.6211 35.014 89.2359C34.3006 89.4282 33.5776 89.6194 32.848 89.812C28.065 91.0755 23.1194 92.382 18.5811 94.6164C17.5031 95.1473 17.0625 96.4449 17.5975 97.5149C17.9782 98.2762 18.7496 98.7167 19.5516 98.7167C19.8768 98.7167 20.2075 98.6444 20.5187 98.491C24.6641 96.4498 29.3944 95.2001 33.969 93.9916C34.7059 93.797 35.4365 93.6041 36.1591 93.4088C36.2291 93.3898 36.2966 93.3676 36.3651 93.3471L50.0999 101.436C52.3043 102.717 54.1506 103.358 55.9984 103.358C57.8482 103.358 59.6992 102.716 61.9123 101.43L75.636 93.3474C75.7049 93.3682 75.7723 93.3904 75.8427 93.4094C76.5935 93.6127 77.3548 93.814 78.1237 94.0173C89.6324 97.0613 101.533 100.209 103.478 115.172L107.099 142.973C107.115 143.1 107.126 143.208 107.132 143.299C107.023 143.305 106.889 143.31 106.726 143.31H86.6298V129.804C86.6298 128.609 85.6544 127.641 84.4505 127.641C83.2466 127.641 82.2711 128.609 82.2711 129.804V143.309H29.7231V129.803C29.7231 128.609 28.7476 127.64 27.5437 127.64C26.3399 127.64 25.3644 128.609 25.3644 129.803V143.309H5.27665C5.11305 143.309 4.97851 143.305 4.86896 143.298C4.87565 143.208 4.88669 143.102 4.90296 142.977L8.51661 115.174C9.09311 110.784 10.5114 107.245 12.8526 104.358C13.6073 103.427 13.4585 102.066 12.5205 101.317C11.5825 100.569 10.211 100.716 9.45634 101.647C6.6383 105.123 4.8678 109.486 4.19395 114.618L0.580594 142.421C0.437048 143.512 0.368472 145.101 1.42618 146.297C2.47459 147.482 4.03471 147.634 5.27665 147.634H106.726C107.964 147.634 109.52 147.483 110.568 146.303C111.626 145.111 111.563 143.521 111.423 142.423ZM73.031 19.3063C73.031 18.0362 73.5424 16.2605 74.3197 14.3537C74.3604 14.2706 74.3941 14.1858 74.4232 14.0999C75.8185 10.7574 77.9932 7.0651 79.6635 4.99909C79.6649 4.99736 79.6664 4.99563 79.6678 4.99361C79.8759 4.73496 80.0366 4.56714 80.1519 4.46045C80.2685 4.56772 80.4309 4.73582 80.6416 4.99649C83.31 8.30644 87.2682 15.7735 87.2682 19.3058C87.2682 22.3369 85.8179 24.3002 83.8501 25.3279C83.8484 25.3288 83.8464 25.3293 83.8446 25.3302C83.8205 25.3412 83.7984 25.3547 83.7752 25.3665C82.6701 25.9268 81.4084 26.1973 80.1496 26.1973C76.606 26.1978 73.031 24.067 73.031 19.3063ZM94.4377 48.3464V51.5831C94.4377 52.8559 93.6895 54.3478 92.4362 55.5741C91.8475 56.1503 91.1879 56.6301 90.5117 56.9888C90.5779 56.293 90.614 55.6018 90.614 54.9176V47.2311H93.3242C93.9385 47.2317 94.4377 47.7317 94.4377 48.3464ZM19.5659 55.5744C18.3126 54.3481 17.5644 52.8559 17.5644 51.5834V48.3467C17.5644 47.7319 18.0639 47.2317 18.6779 47.2317H21.3881V54.9182C21.3881 55.6021 21.4241 56.2933 21.4904 56.9888C20.8145 56.6301 20.1552 56.1508 19.5659 55.5744ZM26.3102 59.4406C26.3033 59.4072 26.2942 59.3749 26.2858 59.342C25.9365 57.8403 25.7468 56.3564 25.7468 54.9179V47.0056C31.8455 46.0855 34.7312 43.1625 36.8934 40.9719C39.0469 38.7906 40.0302 37.7946 43.2577 38.6219C44.8986 39.0411 46.2881 39.4091 47.5135 39.7338C51.6499 40.8292 53.7264 41.3794 56.0007 41.3794C58.2748 41.3794 60.351 40.8295 64.4874 39.7338C65.7134 39.4091 67.1023 39.0411 68.7447 38.6216C71.9739 37.7943 72.9549 38.7906 75.1078 40.9719C77.2703 43.1625 80.1563 46.0852 86.2544 47.0056V54.9179C86.2544 56.361 86.0632 57.8504 85.7113 59.3576C85.7049 59.3829 85.6979 59.4077 85.6924 59.4334C83.3498 69.32 73.9222 79.9842 63.3687 83.8749C60.6111 84.8876 58.2696 85.359 56.0005 85.359C53.731 85.359 51.3895 84.8876 48.634 83.8758C38.0813 79.9877 28.6555 69.3275 26.3102 59.4406ZM59.6992 97.7035C56.6574 99.4711 55.3443 99.4705 52.3145 97.7098L40.3621 90.6707C41.6104 89.2082 42.4025 87.4735 42.9546 86.0718C44.3145 86.7852 45.7061 87.4106 47.1203 87.9317C50.3775 89.1275 53.1996 89.6845 56.0013 89.6845C58.8031 89.6845 61.6252 89.1275 64.8849 87.9305C66.2983 87.4095 67.6887 86.7843 69.0478 86.0713C69.5999 87.4729 70.392 89.2076 71.6406 90.6704L59.6992 97.7035Z" fill="black"/>
<path d="M49.4663 74.1536C50.3191 74.9964 51.6991 74.9938 52.5481 74.1481C53.4701 73.23 54.6964 72.7242 56.0011 72.7242C57.3061 72.7242 58.5323 73.2297 59.4543 74.1481C59.88 74.5723 60.4391 74.7842 60.9982 74.7842C61.5546 74.7842 62.1111 74.574 62.5365 74.1536C63.3891 73.3104 63.3914 71.9414 62.542 71.0951C60.7965 69.3566 58.4736 68.399 56.0014 68.399C53.5294 68.399 51.2065 69.3566 49.461 71.0951C48.6111 71.9414 48.6137 73.3107 49.4663 74.1536Z" fill="black"/>
<path d="M48.8593 53.4072C48.0227 52.5482 46.6433 52.5246 45.7777 53.3545C44.9565 54.1414 43.5684 54.1419 42.7472 53.3545C41.8816 52.5243 40.5016 52.5485 39.6656 53.4072C38.8293 54.2662 38.8532 55.6353 39.7191 56.4651C40.9718 57.6661 42.6173 58.2665 44.2626 58.2665C45.9081 58.2665 47.5537 57.6661 48.8064 56.4651C49.6717 55.6353 49.6955 54.2662 48.8593 53.4072Z" fill="black"/>
<path d="M67.7398 58.2665C69.3854 58.2665 71.0309 57.6661 72.2836 56.4651C73.1492 55.6353 73.1734 54.2662 72.3371 53.4072C71.5008 52.5482 70.1211 52.5246 69.2555 53.3545C68.4346 54.1414 67.0465 54.1419 66.225 53.3545C65.3594 52.5243 63.9794 52.5485 63.1434 53.4072C62.3071 54.2662 62.331 55.6353 63.1969 56.4651C64.4487 57.6661 66.0943 58.2665 67.7398 58.2665Z" fill="black"/>
</svg>
